<?xml version="1.0" standalone="no"?>
<!DOCTYPE svg PUBLIC "-//W3C//DTD SVG 20010904//EN"
 "http://www.w3.org/TR/2001/REC-SVG-20010904/DTD/svg10.dtd">
<svg version="1.0" xmlns="http://www.w3.org/2000/svg"
 width="1380.000000pt" height="920.000000pt" viewBox="0 0 1380.000000 920.000000"
 preserveAspectRatio="xMidYMid meet">

<g transform="translate(0.000000,920.000000) scale(0.100000,-0.100000)"
fill="#000000" stroke="none">
<path d="M5869 8989 c-256 -155 -716 -493 -1069 -784 -118 -98 -312 -253 -431
-346 -435 -338 -774 -638 -1273 -1129 -472 -464 -874 -893 -1162 -1238 -221
-264 -315 -392 -312 -421 2 -18 26 -38 98 -83 52 -33 110 -71 128 -85 l33 -24
-64 -72 c-131 -148 -266 -331 -369 -502 -136 -226 -285 -540 -295 -624 -5 -43
-2 -52 18 -73 13 -13 69 -41 124 -62 55 -21 108 -46 118 -56 18 -16 15 -18
-60 -30 -89 -14 -116 -26 -156 -68 -80 -84 -257 -625 -257 -788 0 -78 13 -90
103 -97 37 -2 71 -7 74 -10 3 -4 -32 -46 -77 -94 -102 -109 -214 -252 -246
-315 -13 -26 -29 -78 -36 -116 -14 -85 0 -167 39 -212 21 -25 32 -30 69 -30
40 0 284 -26 834 -89 96 -12 317 -34 490 -51 173 -17 473 -48 665 -70 193 -21
415 -46 495 -55 290 -32 911 -117 1170 -161 146 -25 330 -56 410 -69 80 -14
185 -26 234 -27 89 -2 89 -2 116 30 14 17 36 66 49 109 46 153 112 250 183
268 60 15 169 -68 208 -159 10 -22 24 -70 31 -106 21 -114 29 -138 54 -168 49
-58 159 -88 630 -172 127 -23 302 -54 390 -70 88 -16 333 -59 545 -95 422 -72
703 -122 910 -160 74 -14 263 -47 420 -75 157 -27 591 -105 965 -174 1087
-199 1439 -259 1610 -272 155 -12 166 11 463 946 197 618 251 787 377 1170 46
140 111 341 145 445 34 105 88 271 120 370 161 496 311 983 419 1360 182 640
251 896 251 936 0 64 -40 138 -111 204 -90 83 -180 123 -338 150 -47 9 -86 17
-88 19 -2 2 10 53 28 114 35 121 34 152 -6 170 -33 15 -129 15 -251 1 -52 -6
-98 -9 -101 -5 -4 3 17 89 45 191 63 222 64 248 20 275 -117 71 -389 169 -563
201 -63 12 -115 26 -115 31 0 4 21 77 46 161 71 238 76 263 55 288 -19 24
-111 47 -311 79 -240 37 -524 36 -779 -5 -52 -8 -96 -13 -98 -11 -2 2 55 164
127 361 71 196 130 367 130 379 -1 62 -56 65 -247 12 -447 -124 -907 -367
-1408 -742 -418 -314 -730 -600 -1014 -932 l-114 -133 -85 83 c-92 91 -270
300 -430 505 -415 533 -1088 1586 -1352 2114 -29 57 -59 112 -68 122 -25 28
-64 20 -153 -34z m160 -192 c89 -169 230 -413 386 -668 520 -851 1013 -1535
1380 -1918 l97 -100 -94 -143 c-350 -530 -1332 -2323 -1944 -3550 -110 -219
-204 -398 -210 -398 -6 0 -38 54 -72 119 -154 301 -407 680 -698 1041 -134
168 -271 326 -584 675 -337 376 -473 537 -640 760 -221 295 -348 495 -484 765
-112 222 -276 633 -276 691 0 29 24 72 94 169 414 577 1538 1654 2386 2286
221 165 560 393 585 394 6 0 39 -55 74 -123z m4576 -877 c8 -13 -229 -657
-833 -2260 -374 -990 -432 -1144 -442 -1154 -5 -5 -74 -13 -152 -17 -429 -23
-853 -172 -1443 -506 -622 -353 -1123 -777 -1599 -1356 -116 -140 -130 -143
-72 -16 56 123 386 752 413 788 201 264 601 578 1026 805 107 57 130 77 109
98 -30 30 -509 -252 -734 -430 -42 -33 -115 -97 -162 -141 -83 -79 -115 -99
-102 -64 4 9 65 125 137 257 125 232 133 244 217 327 121 119 268 233 467 365
441 291 931 532 1385 683 113 37 125 44 117 65 -10 24 -40 20 -185 -29 -517
-173 -1133 -498 -1570 -827 -86 -65 -159 -118 -164 -118 -13 0 0 24 189 366
169 306 188 337 248 393 353 330 1060 705 1744 925 159 51 190 66 191 89 1 43
-423 -94 -789 -254 -316 -139 -599 -293 -858 -465 -133 -88 -185 -118 -192
-110 -7 8 31 82 124 240 146 248 148 251 364 431 414 345 894 617 1474 835 93
35 171 70 174 77 11 28 -14 38 -63 25 -191 -51 -665 -264 -944 -425 -148 -85
-404 -254 -542 -358 -118 -89 -153 -100 -106 -33 153 215 561 622 883 881 576
463 1082 750 1580 898 92 27 102 29 110 15z m735 -745 c110 -18 211 -43 223
-55 14 -13 -4 -72 -243 -820 -102 -320 -236 -744 -298 -945 -210 -675 -758
-2350 -942 -2878 -52 -149 -65 -177 -79 -171 -72 32 -350 117 -451 138 -477
97 -929 99 -1710 6 -423 -50 -874 -139 -1274 -251 -219 -62 -357 -109 -589
-201 -98 -38 -181 -68 -184 -65 -8 9 71 148 162 287 215 325 666 827 980 1089
557 464 1335 894 1845 1020 145 36 310 60 460 67 130 6 146 9 163 28 11 12 57
123 103 246 46 124 91 242 101 263 l16 37 160 0 c93 0 203 -7 264 -16 58 -8
112 -13 119 -10 20 8 17 34 -4 45 -31 16 -262 41 -386 41 -94 0 -116 3 -116
14 0 38 295 839 343 933 l16 29 88 -9 c48 -4 140 -19 203 -31 63 -13 120 -21
127 -19 7 3 13 14 13 24 0 14 -13 22 -52 33 -61 18 -205 42 -293 50 -33 3 -61
5 -62 6 -15 2 172 519 195 542 6 6 77 0 186 -17 97 -14 180 -23 186 -20 18 11
10 35 -14 45 -13 5 -90 19 -170 31 -80 13 -150 25 -156 29 -9 6 141 420 162
447 19 24 178 57 373 77 83 9 443 -4 535 -19z m300 -555 c36 -6 96 -20 133
-31 l68 -20 -6 -32 c-4 -18 -85 -288 -180 -602 -95 -313 -199 -655 -230 -760
-142 -473 -482 -1572 -590 -1905 -49 -152 -329 -1039 -425 -1348 l-41 -133
-32 6 c-245 41 -605 90 -842 115 -104 11 -229 24 -276 30 -85 10 -374 30 -744
51 -285 17 -1555 6 -1838 -16 -202 -16 -241 -15 -224 1 30 30 847 151 1177
174 80 5 217 16 305 22 203 16 927 16 1135 0 85 -7 237 -21 337 -33 133 -14
188 -17 202 -9 25 13 17 38 -13 45 -77 17 -494 49 -863 66 -250 12 -306 11
-690 -9 -230 -12 -497 -31 -593 -42 -185 -20 -655 -83 -754 -101 -54 -9 -77
-7 -64 7 3 3 70 23 149 45 512 144 1323 261 1909 275 521 13 964 -55 1307
-200 73 -30 114 -33 135 -8 25 29 573 1686 868 2627 72 231 186 589 252 795
107 336 145 454 275 855 20 61 40 118 45 128 10 20 20 20 108 7z m358 -104
c76 -29 168 -71 180 -81 3 -3 -322 -1108 -455 -1545 -258 -851 -783 -2462
-1052 -3230 -32 -91 -66 -190 -75 -220 -25 -86 -20 -84 -122 -66 -478 84
-1256 196 -1809 261 -165 19 -357 41 -428 49 -70 9 -277 29 -460 46 -182 16
-402 37 -487 45 -133 13 -543 37 -1043 61 -135 6 -177 16 -114 28 221 40 568
63 1137 77 516 12 832 8 1340 -17 532 -26 1201 -97 1653 -175 65 -12 124 -18
133 -15 8 3 19 18 25 32 5 15 122 386 260 823 138 438 277 879 309 981 101
318 383 1230 485 1565 35 116 138 455 228 755 91 300 173 571 182 603 9 31 18
57 20 57 2 0 44 -15 93 -34z m-8943 4 c4 -6 -43 -77 -103 -158 -129 -175 -161
-223 -168 -261 -10 -48 129 -429 244 -673 242 -509 550 -933 1217 -1673 439
-487 688 -794 917 -1130 115 -169 282 -444 274 -452 -34 -34 -495 377 -740
660 -181 209 -359 450 -891 1207 -457 649 -816 1061 -1138 1304 -140 105 -170
121 -187 101 -16 -20 -3 -35 70 -85 263 -180 596 -526 930 -970 64 -85 203
-279 310 -430 282 -401 501 -708 604 -845 330 -441 706 -811 1044 -1028 64
-42 76 -54 98 -104 14 -31 23 -61 21 -67 -3 -7 -32 -13 -68 -14 -59 -2 -72 2
-164 47 -218 107 -491 308 -798 588 -150 138 -624 625 -1007 1038 -573 617
-1020 1010 -1570 1380 -96 65 -181 124 -189 131 -12 11 -5 24 44 88 173 226
524 629 761 873 361 372 470 483 476 483 4 0 10 -5 13 -10z m9395 -579 c0 -16
-62 -222 -257 -856 -30 -99 -73 -238 -94 -310 -22 -71 -80 -254 -129 -405
-317 -980 -441 -1384 -616 -2000 -254 -896 -408 -1428 -415 -1434 -7 -6 -274
31 -909 128 -1047 160 -1513 221 -2645 346 -148 16 -472 59 -720 95 -247 36
-503 73 -569 83 l-118 16 -44 52 c-24 28 -44 56 -44 63 0 17 546 14 830 -4
1134 -74 2306 -207 3443 -391 218 -35 413 -64 432 -64 29 0 39 6 54 31 17 27
360 1053 745 2225 199 607 416 1304 679 2184 l64 215 39 13 c47 16 138 29 217
31 49 1 57 -1 57 -18z m165 -306 c39 -8 87 -22 108 -32 45 -20 46 -4 -18 -208
-24 -77 -86 -279 -138 -450 -118 -384 -212 -688 -281 -910 -29 -93 -66 -210
-80 -260 -15 -49 -52 -166 -81 -260 -29 -93 -70 -224 -90 -290 -20 -66 -58
-190 -85 -275 -27 -85 -52 -170 -55 -188 -3 -18 -21 -79 -41 -135 -19 -56 -46
-136 -58 -177 -13 -41 -40 -129 -61 -195 -20 -66 -45 -147 -55 -180 -10 -33
-100 -323 -200 -645 -100 -322 -190 -612 -200 -645 -39 -130 -71 -224 -78
-229 -4 -2 -92 11 -197 30 -104 19 -253 46 -330 59 -77 13 -192 33 -255 44
-299 53 -439 77 -885 151 -710 117 -912 150 -995 161 -83 10 -100 13 -180 29
-30 5 -156 26 -280 45 -124 19 -326 51 -450 70 -265 42 -479 75 -755 116 -110
16 -227 34 -260 39 -33 5 -152 23 -265 40 -113 17 -222 33 -243 36 -32 5 -41
12 -53 40 -22 51 -18 64 16 64 17 0 148 -18 292 -40 255 -40 456 -67 688 -95
63 -8 149 -19 190 -25 75 -10 517 -62 685 -80 226 -24 390 -43 640 -76 149
-19 293 -37 320 -40 80 -9 528 -72 670 -94 307 -47 534 -80 584 -85 30 -3 57
-8 62 -10 9 -6 393 -66 613 -95 173 -23 193 -21 214 25 10 21 27 79 128 435
60 209 111 386 164 569 27 95 50 184 50 197 0 12 4 25 9 28 5 3 12 23 15 43 7
38 15 67 55 193 11 36 40 135 65 220 92 319 259 859 451 1460 14 41 38 118 54
170 16 52 59 187 95 300 36 113 66 212 66 220 0 8 9 40 21 70 11 30 48 141 80
245 61 193 131 417 176 558 24 75 25 77 56 77 18 0 64 -7 102 -15z m-10534
-891 c198 -140 446 -342 689 -559 190 -171 429 -413 809 -820 407 -436 806
-839 981 -990 123 -106 151 -135 131 -135 -5 0 -124 56 -263 124 -616 301
-1266 582 -1879 812 -275 103 -795 276 -817 272 -9 -2 -17 -12 -17 -23 0 -17
41 -34 300 -121 903 -303 1980 -766 2780 -1195 167 -89 462 -255 475 -266 2
-2 -15 -22 -37 -45 l-42 -42 -53 16 c-29 8 -170 49 -313 91 -575 167 -1034
273 -1815 421 -681 129 -1478 266 -1720 296 -91 11 -184 23 -207 26 -51 6 -51
9 -24 134 41 182 166 527 210 581 l28 33 171 11 c183 12 202 18 202 64 0 52
-75 98 -327 202 -67 28 -83 38 -83 56 0 26 49 141 119 281 60 119 40 114 208
51 363 -135 1240 -570 1663 -825 153 -92 190 -106 190 -70 0 19 -39 48 -165
124 -426 255 -1335 703 -1688 831 -135 50 -130 38 -65 154 91 160 250 376 371
504 38 40 75 73 82 73 7 0 55 -30 106 -66z m-680 -2284 c52 -9 303 -51 419
-70 30 -5 183 -31 340 -59 157 -28 339 -60 405 -71 66 -12 163 -30 215 -40 52
-11 183 -35 290 -55 288 -53 570 -111 790 -162 107 -25 227 -51 265 -58 39 -8
83 -18 99 -25 31 -11 108 -33 295 -81 127 -33 379 -105 414 -118 12 -5 58 -19
102 -32 44 -13 82 -24 84 -25 2 -2 -7 -28 -20 -58 -17 -43 -28 -56 -43 -56
-25 0 -231 38 -436 80 -80 16 -194 39 -255 49 -698 127 -866 154 -1350 220
-273 38 -453 59 -725 86 -85 8 -222 21 -305 30 -160 16 -304 28 -530 45 -342
25 -515 44 -515 55 0 6 8 20 18 31 9 11 42 49 71 84 74 87 171 186 213 215 37
27 76 30 159 15z m-140 -495 c162 -14 476 -41 699 -60 423 -36 948 -98 1470
-176 388 -57 1584 -279 1602 -297 4 -4 5 -30 2 -56 l-7 -48 -61 6 c-34 4 -164
25 -291 46 -467 80 -900 142 -1210 175 -82 9 -240 27 -350 40 -110 13 -249 29
-310 35 -60 6 -238 25 -395 41 -157 16 -352 36 -435 44 -147 15 -244 25 -770
85 -142 17 -273 30 -291 30 -17 0 -38 7 -45 16 -13 16 -16 114 -4 134 9 15 72
13 396 -15z m5214 -754 c423 -67 823 -129 1600 -246 631 -96 2015 -328 3014
-507 l123 -22 19 -44 c23 -53 34 -118 23 -124 -11 -7 -30 -4 -459 71 -394 68
-501 88 -730 130 -300 56 -540 100 -690 126 -82 14 -364 64 -625 111 -565 101
-882 157 -1240 219 -146 26 -353 62 -460 81 -107 19 -361 64 -565 100 -393 68
-405 71 -405 83 0 5 -3 23 -7 41 l-6 33 79 -6 c43 -3 192 -24 329 -46z"/>
<path d="M4817 7216 c-8 -19 12 -43 186 -230 178 -190 305 -336 450 -513 59
-72 114 -134 122 -137 7 -2 19 2 25 10 17 19 9 30 -196 274 -251 300 -540 610
-568 610 -8 0 -16 -6 -19 -14z"/>
<path d="M6855 6450 c-8 -13 1 -25 153 -218 103 -131 254 -346 325 -462 38
-62 68 -77 75 -37 7 36 -223 375 -415 612 -85 105 -121 133 -138 105z"/>
<path d="M6201 5710 c-8 -4 -12 -12 -10 -18 2 -6 57 -75 121 -154 156 -192
230 -289 386 -509 72 -102 140 -193 151 -203 21 -20 51 -16 51 7 0 29 -401
575 -554 754 -100 117 -123 137 -145 123z"/>
<path d="M5481 5176 c-10 -12 5 -35 81 -123 233 -269 417 -518 662 -890 94
-145 131 -193 146 -193 43 0 17 50 -170 328 -257 383 -463 655 -627 830 -61
65 -73 71 -92 48z"/>
<path d="M4870 4557 c0 -13 12 -34 26 -48 39 -35 248 -287 345 -414 183 -239
360 -493 579 -830 78 -121 151 -230 162 -242 22 -24 48 -20 48 7 0 18 -168
284 -335 530 -274 405 -546 761 -729 957 -61 66 -96 81 -96 40z"/>
<path d="M8850 3989 c-244 -28 -598 -106 -840 -184 -198 -65 -526 -208 -642
-281 -38 -24 -53 -64 -24 -64 8 0 90 37 183 83 414 203 839 329 1293 382 189
23 447 29 580 15 242 -25 260 -25 260 -3 0 25 -43 39 -165 53 -106 12 -537 11
-645 -1z"/>
<path d="M8635 3174 c-697 -54 -1235 -192 -1770 -454 -292 -144 -575 -324
-747 -477 -45 -40 -46 -42 -27 -58 13 -13 22 -15 31 -8 465 370 907 599 1470
762 280 81 537 128 883 162 188 18 262 20 510 16 207 -4 322 -10 400 -23 153
-25 190 -24 190 1 0 26 -54 40 -240 61 -132 15 -586 27 -700 18z"/>
<path d="M1380 2874 c-24 -28 9 -40 184 -68 93 -15 209 -36 258 -47 92 -22
118 -20 118 6 0 24 -51 41 -215 69 -83 14 -188 32 -235 41 -103 18 -95 18
-110 -1z"/>
<path d="M2333 2704 c-19 -8 -16 -32 5 -43 10 -5 61 -17 113 -26 323 -56 977
-226 1534 -399 273 -85 351 -112 703 -241 271 -99 295 -106 310 -91 14 14 14
18 2 30 -33 32 -719 272 -1175 411 -616 187 -1435 384 -1492 359z"/>
</g>
</svg>
